<svg width="96" height="96" xmlns="http://www.w3.org/2000/svg" xmlns:xlink="http://www.w3.org/1999/xlink" xml:space="preserve" overflow="hidden"><g><g><path d="M48 10C27.0132 10 10 27.0132 10 48 10 68.9868 27.0132 86 48 86 68.9868 86 86 68.9868 86 48 86 27.0132 68.9868 10 48 10ZM25.389 61C23.3947 61 21.778 59.3833 21.778 57.389 21.778 55.3947 23.3947 53.778 25.389 53.778 27.3833 53.778 29 55.3947 29 57.389 29 59.3833 27.3833 61 25.389 61ZM35 37C32.2386 37 30 34.7614 30 32 30 29.2386 32.2386 27 35 27 37.7614 27 40 29.2386 40 32 40 34.7614 37.7614 37 35 37ZM44.667 64.389C44.667 62.3947 46.2837 60.778 48.278 60.778 50.2723 60.778 51.889 62.3947 51.889 64.389 51.889 66.3833 50.2723 68 48.278 68 46.2837 68 44.667 66.3833 44.667 64.389ZM48 82 48 69.986C48.093 69.986 48.184 70 48.278 70 51.3769 70 53.889 67.4879 53.889 64.389 53.889 61.2901 51.3769 58.778 48.278 58.778 48.184 58.778 48.093 58.787 48 58.792L48 14C66.7777 14 82 29.2223 82 48 82 66.7777 66.7777 82 48 82Z" fill="#C00000" fill-rule="nonzero" fill-opacity="1"/><path d="M60.222 46.667C56.0489 46.667 52.666 50.0499 52.666 54.223 52.666 58.3961 56.0489 61.779 60.222 61.779 64.3951 61.779 67.778 58.3961 67.778 54.223 67.778 54.2227 67.778 54.2223 67.778 54.222 67.7736 50.0509 64.3931 46.6709 60.222 46.667ZM60.222 59.778C57.1535 59.778 54.666 57.2905 54.666 54.222 54.666 51.1535 57.1535 48.666 60.222 48.666 63.2905 48.666 65.778 51.1535 65.778 54.222 65.778 57.2905 63.2905 59.778 60.222 59.778Z" fill="#C00000" fill-rule="nonzero" fill-opacity="1"/><path d="M69.667 28.889C66.7211 28.8884 64.3326 31.2761 64.332 34.222 64.3315 37.1679 66.7191 39.5564 69.665 39.557 72.6109 39.5576 74.9995 37.1699 75 34.224 75 34.2233 75 34.2227 75 34.222 74.9967 31.278 72.611 28.8923 69.667 28.889ZM69.667 37.556C67.8257 37.5566 66.3326 36.0643 66.332 34.223 66.3315 32.3817 67.8237 30.8886 69.665 30.888 71.5063 30.8874 72.9995 32.3797 73 34.221 73 34.2213 73 34.2217 73 34.222 73 36.0629 71.5079 37.5554 69.667 37.556Z" fill="#C00000" fill-rule="nonzero" fill-opacity="1"/></g></g></svg>